<svg xmlns="http://www.w3.org/2000/svg" width="100" height="100"><g transform="matrix(.88739 0 0 .88739 1267.328 -332.687)"><rect width="63.214" height="40.714" x="-73.879" y="317.729" fill="#f9f9f9" fill-rule="evenodd" stroke="#000" stroke-linecap="round" stroke-linejoin="round" stroke-width=".8" rx="3.599" ry="3.599" transform="translate(-1348.255 94.513)"/><rect width="44.527" height="40.714" x="-16.051" y="317.729" fill="#265697" fill-rule="evenodd" stroke="#000" stroke-linecap="round" stroke-linejoin="round" stroke-width=".8" rx="3.599" ry="3.599" transform="translate(-1348.255 94.513)"/><g transform="translate(-1348.255 94.513)" style="line-height:125%;-inkscape-font-specification:'Segoe WP Black, Ultra-Bold'" fill="#4d4d4d" font-family="Sans" font-size="18.762" font-weight="400" letter-spacing="0" word-spacing="0"><path d="M-57.685915 338.89135l-4.635422-6.33935c-.195438-.26872-.366442-.51453-.513011-.73746-.14658-.2229-.274832-.42902-.384758-.61836l-.03664 0c.01832.3237.03206.66265.04122 1.01686.0092.35423.01374.74204.01374 1.16344l0 5.51487-3.664365 0 0-13.13675 3.737652 0 4.443042 6.02788c.05496.0794.122136.17407.20154.28399.07938.10994.15878.22292.238184.33895.07939.11605.154199.22903.224442.33896.07022.10993.123662.20765.160316.29315l.03664 0c-.03055-.22597-.04734-.46568-.05038-.71914-.0031-.25344-.0046-.47788-.0046-.67332l0-5.89047 3.664365 0 0 13.13675zM-51.621392 338.89135l0-13.13675 8.180694 0 0 3.09639-4.22318 0 0 1.91463 3.966675 0 0 3.09639-3.966675 0 0 1.93295 4.525491 0 0 3.09639zM-34.609577 328.85099l0 10.04036-3.975836 0 0-10.04036-3.673526 0 0-3.09639 11.368692 0 0 3.09639z" style="text-align:start;line-height:125%;-inkscape-font-specification:'Segoe WP Black, Ultra-Bold'" font-family="Segoe WP Black" font-weight="800"/><path d="M-60.375252 348.03039c-.000007.35699-.06172.68834-.18514.99406-.123434.30572-.31617.57061-.578207.79468-.262051.22407-.598152.39971-1.008302.52694-.410162.12722-.903869.19083-1.481122.19083l-3.725591 0 0-8.16895 3.469243 0c1.089949 0 1.904565.16521 2.443851.4956.539273.33041.808913.82412.80892 1.48112-.000007.19749-.02944.37504-.0883.53264-.05887.15761-.136726.29908-.233562.4244-.09685.12533-.206984.23451-.330404.32755-.123433.0931-.249708.1728-.378825.23926-.12913.0665-.256354.11963-.381674.15951-.125332.0399-.237365.0693-.336101.0883l0 .0228c.319005.038.602887.11868.851645.24211.248746.12343.458571.27154.629477.44433.170891.1728.300964.36364.390219.57251.08924.20888.133863.41966.13387.63233zm-2.871097-3.25847c-.000005-.26963-.106342-.46332-.319011-.58106-.212678-.11772-.503206-.17658-.871583-.17659l-.45573 0 0 1.54378.712078 0c.140512.00001.268686-.0199.384522-.0598.115827-.0399.214568-.0949.296224-.1652.08165-.0703.14431-.15381.187989-.25065.04367-.0968.06551-.20033.06551-.31047zm.256348 3.24708c-.000005-.12153-.02374-.23261-.07121-.33326-.04748-.10063-.112038-.18608-.193685-.25635-.08166-.0702-.179448-.12437-.293376-.16235-.113937-.038-.239263-.057-.375977-.057l-.968426 0 0 1.66912.820314 0c.159501 0 .305714-.019.43864-.057.132916-.038.246848-.093.341797-.1652.09494-.0722.168995-.16141.222168-.26774.05316-.10634.07975-.22977.07975-.37028zM-56.273684 350.5369l0-.88867-.02279 0c-.182296.32281-.420604.57536-.714926.75765-.294329.18229-.648468.27344-1.06242.27344-.296227 0-.554473-.0465-.774741-.13957-.22027-.093-.403512-.22122-.549724-.38452-.146214-.1633-.255399-.35414-.327556-.57251-.07216-.21837-.108236-.45288-.108236-.70353 0-.21268.02848-.42535.08545-.63803.05697-.21267.162353-.41015.316162-.59245.153808-.18228.368381-.34084.643718-.47566.275336-.13482.631374-.23071 1.068117-.28768l1.446942-.18799c-.000004-.0987-.02374-.18799-.07121-.26774-.04747-.0797-.112986-.14811-.196533-.20508-.08355-.057-.183245-.10064-.299073-.13102-.115834-.0304-.242109-.0456-.378825-.0456-.193688.00001-.386423.0162-.578207.0484-.191789.0323-.375979.075-.552573.12817-.176596.0532-.343697.11299-.501302.17944-.157608.0665-.302872.13388-.435792.20223l0-1.57796c.140516-.0608.308566-.11962.504151-.1766.195583-.057.40256-.10633.620932-.14811.218368-.0418.437688-.0759.65796-.10254.220266-.0266.427243-.0399.620932-.0399.531681 0 .977916.0579 1.338706.17374.360781.11584.651308.28864.871583.5184.220264.22976.37787.51649.47282.86018.09494.34371.142409.74532.142415 1.20484l0 3.21859zm-.820313-2.55778c-.186093.0304-.335154.0921-.447185.18514-.112036.0931-.168053.22312-.168051.39022-.000002.0646.01044.12912.03133.19368.02088.0646.05411.12343.09969.1766.04557.0532.105385.0959.179443.12817.07405.0323.16425.0484.27059.0484.121525 0 .234508-.0237.338949-.0712.104435-.0475.194631-.11583.270589-.20508.07595-.0892.135766-.19653.179444-.32186.04367-.12533.06551-.26394.06551-.41586l0-.22216zM-49.187086 350.5369l0-3.18441c-.000004-.18988-.01425-.34939-.04272-.47852-.02849-.12912-.07216-.23355-.131023-.31331-.05887-.0797-.131026-.13671-.216471-.1709-.08545-.0342-.185144-.0513-.299073-.0513-.117734.00001-.218374.0247-.301921.0741-.08355.0494-.151913.11488-.205078.19653-.05317.0817-.09305.1747-.119629.27914-.02659.10444-.03988.21172-.03988.32185l0 3.32683-2.426761 0 0-5.83334 2.426761 0 0 .91146.02279 0c.07975-.13671.178491-.26868.296224-.39591.117727-.12722.253496-.23926.407309-.33611.153804-.0968.325652-.17469.515544-.23356.189883-.0589.398759-.0883.626628-.0883.273433 0 .526932.0399.760499.11962.233556.0798.435786.21363.606691.40162.170892.18799.304762.43674.401612.74625.09683.30952.145257.69215.145263 1.14787l0 3.56039zM-41.906804 350.5369l-1.29883-2.99642-.02279 0 0 2.99642-2.426761 0 0-8.63608 2.426761 0 0 5.54282.02279 0 1.179201-2.74008 2.734379 0-1.577964 2.67172 1.66911 3.16162zM-36.158911 343.13129c-.000003.15952-.03038.30953-.09115.45004-.06077.14052-.148115.26205-.262045.36458-.113935.10255-.255401.1842-.424398.24495-.169002.0608-.361737.0912-.578207.0912-.208878.00001-.396866-.0313-.563966-.094-.167102-.0627-.308568-.14621-.424398-.25065-.115832-.10444-.205079-.22691-.267741-.36744-.06266-.14051-.09399-.28672-.09399-.43864 0-.17469.03418-.33134.10254-.46997.06836-.13861.162353-.25634.281982-.35319.119629-.0968.262044-.17089.427247-.22217.165201-.0513.344644-.0769.538331-.0769.205076.00001.391166.0275.558269.0826.167098.0551.309514.13198.427247.23071.117727.0987.208873.21648.273437.35319.06456.13673.09684.28864.09684.45573zm-2.569177 7.40561l0-5.83334 2.426761 0 0 5.83334zM-31.345265 350.5369l0-3.18441c-.000004-.18988-.01425-.34939-.04272-.47852-.02849-.12912-.07216-.23355-.131022-.31331-.05887-.0797-.131026-.13671-.216472-.1709-.08545-.0342-.185144-.0513-.299072-.0513-.117734.00001-.218374.0247-.301921.0741-.08355.0494-.151913.11488-.205079.19653-.05317.0817-.09305.1747-.119629.27914-.02659.10444-.03988.21172-.03988.32185l0 3.32683-2.426761 0 0-5.83334 2.426761 0 0 .91146.02279 0c.07975-.13671.178491-.26868.296225-.39591.117727-.12722.253496-.23926.407308-.33611.153805-.0968.325653-.17469.515545-.23356.189883-.0589.398758-.0883.626628-.0883.273433 0 .526932.0399.760499.11962.233556.0798.435786.21363.60669.40162.170893.18799.304763.43674.401612.74625.09684.30952.145257.69215.145264 1.14787l0 3.56039zM-21.490111 349.72229c-.000007.31141-.03039.61523-.09115.91145-.06077.29623-.158562.57536-.293376.83741-.134826.26204-.309522.50415-.524089.72632-.214579.22216-.475673.413-.783286.57251-.307622.1595-.663661.28388-1.068116.37313-.404464.0892-.864941.13386-1.381431.13387-.182295-.00001-.364586-.008-.546876-.0228-.182294-.0152-.353192-.0361-.512696-.0627-.159507-.0266-.303821-.057-.432943-.0912-.129125-.0342-.229765-.0684-.301921-.10254l0-1.90267c.07975.0494.181341.10349.304769.16235.123426.0589.262043.11299.415854.16236.153807.0494.31711.0911.489909.12532.172795.0342.344643.0513.515544.0513.296222 0 .555418-.038.777589-.11393.222165-.0759.409204-.17944.561118-.31046.151905-.13103.265838-.28294.341797-.45573.07595-.1728.113928-.35794.113932-.55542l0-.35889-.02279 0c-.06457.0987-.150015.20033-.256348.30477-.106341.10444-.231667.19938-.375977.28483-.144318.0854-.305722.15476-.484213.20792-.178497.0532-.374081.0798-.586752.0798-.379777 0-.720625-.0684-1.022544-.20508-.301922-.13672-.55827-.3323-.769044-.58675-.210776-.25445-.37123-.56397-.481364-.92855-.110135-.36458-.165203-.77284-.165202-1.22478-.000001-.52788.07406-.99026.222168-1.38712.148111-.39686.344645-.72727.5896-.99122.244954-.26393.525987-.46237.8431-.59529.31711-.13292.644666-.19938.982668-.19938.205075 0 .387367.0218.546875.0655.159502.0437.300019.10064.421551.1709.121523.0703.225961.15001.313314.23925.08734.0893.1614.17945.222168.27059l.02279 0 0-.60384 2.415368 0zm-2.375491-2.26726c-.000005-.12153-.0133-.2478-.03988-.37883-.02659-.13101-.07216-.25064-.136718-.35888-.06457-.10823-.150965-.19843-.259197-.27059-.10824-.0722-.244009-.10823-.407308-.10824-.14052.00001-.266795.0332-.378826.0997-.112036.0665-.20698.15951-.284831.27914-.07786.11963-.136722.2611-.176595.4244-.03988.1633-.05982.3418-.05982.53548-.000002.37598.06836.6741.205079.89437.136716.22027.353187.3304.649415.3304.14431 0 .272484-.0313.384522-.094.112029-.0627.205074-.15001.279134-.26205.07405-.11203.130069-.244.168051-.39591.03797-.15191.05696-.31711.05697-.49561z" style="text-align:start;line-height:125%;-inkscape-font-specification:'Segoe WP Black, Ultra-Bold'" font-family="Segoe WP Black" font-size="11.667" font-weight="800"/></g><g style="line-height:125%"><path fill="#fff" d="m -1342.6239,445.26446 0,-2.30944 c -1.1548,-0.14541 -2.0935,-0.40415 -2.8163,-0.77623 -0.7227,-0.37208 -1.3472,-0.97296 -1.8732,-1.80265 -0.526,-0.82968 -0.8318,-1.84327 -0.9174,-3.04076 l 2.3223,-0.43623 c 0.1796,1.24026 0.4961,2.1512 0.9495,2.73284 0.65,0.82113 1.4284,1.27875 2.3351,1.37283 l 0,-7.35172 c -0.9495,-0.17962 -1.9203,-0.54742 -2.9125,-1.1034 -0.7356,-0.41056 -1.3023,-0.97937 -1.7,-1.70642 -0.3977,-0.72704 -0.5966,-1.55245 -0.5966,-2.47624 0,-1.64225 0.5816,-2.97232 1.7449,-3.9902 0.7784,-0.68426 1.9331,-1.10338 3.4642,-1.25737 l 0,-1.1034 1.36,0 0,1.1034 c 1.3429,0.12833 2.4078,0.52179 3.1947,1.18039 1.0093,0.83826 1.6166,1.9887 1.8219,3.45133 l -2.3864,0.35925 c -0.1369,-0.90666 -0.4213,-1.60163 -0.8532,-2.08492 -0.432,-0.48325 -1.0243,-0.80187 -1.777,-0.95585 l 0,6.65889 c 1.1632,0.29083 1.933,0.5175 2.3094,0.68 0.7185,0.31649 1.3044,0.7014 1.7578,1.15473 0.4533,0.45334 0.8018,0.99221 1.0456,1.61661 0.2438,0.62441 0.3657,1.30013 0.3657,2.02717 0,1.59951 -0.509,2.93385 -1.5268,4.00304 -1.0179,1.06918 -2.3351,1.64227 -3.9517,1.71925 l 0,2.3351 z m 0,-20.22045 c -0.8982,0.13687 -1.606,0.49612 -2.1234,1.07774 -0.5175,0.58165 -0.7763,1.27021 -0.7763,2.06567 0,0.78693 0.2203,1.44555 0.6608,1.97585 0.4405,0.53033 1.1868,0.95373 2.2389,1.2702 z m 1.36,15.96081 c 0.8981,-0.11119 1.6401,-0.50037 2.226,-1.16755 0.5859,-0.66717 0.8789,-1.49258 0.8789,-2.47623 0,-0.83824 -0.2074,-1.51183 -0.6223,-2.02077 -0.4148,-0.50892 -1.2424,-0.96439 -2.4826,-1.36642 z" font-family="Sans" font-size="26.276" font-weight="400" letter-spacing="0" word-spacing="0"/></g></g></svg>